<?xml version="1.0" encoding="iso-8859-1"?>
<!-- Generator: Adobe Illustrator 19.0.0, SVG Export Plug-In . SVG Version: 6.00 Build 0)  -->
<svg version="1.1" id="Capa_1" xmlns="http://www.w3.org/2000/svg" xmlns:xlink="http://www.w3.org/1999/xlink" x="0px" y="0px"
	 viewBox="0 0 512 512" style="enable-background:new 0 0 512 512;" xml:space="preserve">
<g>
	<g>
		<path d="M418.152,159.375H16.659C7.458,159.375,0,166.833,0,176.035v237.675c0,9.202,7.458,16.659,16.659,16.659h401.492
			c9.202,0,16.659-7.458,16.659-16.659V176.035C434.811,166.833,427.353,159.375,418.152,159.375z M401.492,397.05H33.319V192.694
			h368.174V397.05z"/>
	</g>
</g>
<g>
	<g>
		<path d="M78.299,176.04v15.549c0,24.8-20.18,44.981-44.981,44.981H17.77v33.319h15.549c43.176,0,78.299-35.129,78.299-78.299
			V176.04H78.299z"/>
	</g>
</g>
<g>
	<g>
		<path d="M400.937,236.564c-24.806,0-44.986-20.18-44.986-44.98v-15.549h-33.319v15.549c0,43.176,35.129,78.305,78.305,78.305
			h15.549v-33.324H400.937z"/>
	</g>
</g>
<g>
	<g>
		<path d="M400.943,319.861c-43.181,0-78.305,35.129-78.305,78.299v15.549h33.313v-15.549c0-24.8,20.18-44.98,44.986-44.98h15.549
			v-33.319H400.943z"/>
	</g>
</g>
<g>
	<g>
		<path d="M33.319,319.861H17.77v33.319h15.549c24.8,0,44.981,20.18,44.981,44.98v15.549h33.319v-15.549
			C111.618,354.985,76.495,319.861,33.319,319.861z"/>
	</g>
</g>
<g>
	<g>
		<path d="M217.128,203.251c-50.523,0-91.627,41.099-91.627,91.627c0,50.523,41.104,91.627,91.627,91.627
			s91.627-41.11,91.627-91.627C308.755,244.355,267.651,203.251,217.128,203.251z M217.128,353.18
			c-32.153,0-58.308-26.155-58.308-58.308s26.155-58.308,58.308-58.308s58.308,26.155,58.308,58.308S249.281,353.18,217.128,353.18z
			"/>
	</g>
</g>
<g>
	<g>
		<path d="M495.341,81.631H94.403c-9.202,0-16.659,7.458-16.659,16.659v77.189h33.319V114.95h367.618v204.356h-59.419v33.319h76.078
			c9.202,0,16.659-7.458,16.659-16.659V98.291C512,89.089,504.542,81.631,495.341,81.631z"/>
	</g>
</g>
<g>
</g>
<g>
</g>
<g>
</g>
<g>
</g>
<g>
</g>
<g>
</g>
<g>
</g>
<g>
</g>
<g>
</g>
<g>
</g>
<g>
</g>
<g>
</g>
<g>
</g>
<g>
</g>
<g>
</g>
</svg>
