<?xml version="1.0" encoding="iso-8859-1"?>
<!-- Generator: Adobe Illustrator 19.0.0, SVG Export Plug-In . SVG Version: 6.00 Build 0)  -->
<svg version="1.1" id="Capa_1" xmlns="http://www.w3.org/2000/svg" xmlns:xlink="http://www.w3.org/1999/xlink" x="0px" y="0px"
	 viewBox="0 0 496.008 496.008" style="enable-background:new 0 0 496.008 496.008;" xml:space="preserve">
<g>
	<g>
		<g>
			<path d="M308.908,220.312l-9.392-12.952c-15.032,10.888-32.856,16.648-51.512,16.648c-48.52,0-88-39.48-88-88s39.48-88,88-88
				s88,39.48,88,88c0,24.272-9.664,46.864-27.216,63.64l11.048,11.56c20.744-19.808,32.168-46.52,32.168-75.2
				c0-57.344-46.656-104-104-104s-104,46.656-104,104s46.656,104,104,104C270.052,240.008,291.116,233.192,308.908,220.312z"/>
			<rect x="272.004" y="416.008" width="16" height="16"/>
			<rect x="200.004" y="432.008" width="16" height="16"/>
			<rect x="304.004" y="448.008" width="16" height="16"/>
			<rect x="240.004" y="456.008" width="16" height="16"/>
			<rect x="168.004" y="456.008" width="16" height="16"/>
			<rect x="224.004" y="400.008" width="16" height="16"/>
			<path d="M288.004,120.008v-8c0-17.648-14.352-32-32-32v-16h-16v16c-17.648,0-32,14.352-32,32s14.352,32,32,32h16
				c8.824,0,16,7.176,16,16c0,8.824-7.176,16-16,16h-16c-8.824,0-16-7.176-16-16v-8h-16v8c0,17.648,14.352,32,32,32v16h16v-16
				c17.648,0,32-14.352,32-32s-14.352-32-32-32h-16c-8.824,0-16-7.176-16-16c0-8.824,7.176-16,16-16h16c8.824,0,16,7.176,16,16v8
				H288.004z"/>
			<path d="M304.66,384.768c46.192-16.712,79.344-60.872,79.344-112.76v-8h-8c-44.464,0-83.272,24.36-104,60.384v-54.64
				c63.568-11.384,112-66.96,112-133.752c0-74.992-61.008-136-136-136s-136,61.016-136,136.008c0,66.792,48.432,122.368,112,133.752
				v54.64c-20.728-36.032-59.536-60.392-104-60.392h-8v8c0,51.888,33.152,96.048,79.344,112.76
				c-50.056,15.632-92.88,51.368-116.28,99.76l-5.56,11.48h356.984l-5.552-11.488C397.548,436.136,354.716,400.4,304.66,384.768z
				 M367.676,280.336c-4.04,50.72-44.624,91.304-95.344,95.344C276.372,324.96,316.956,284.376,367.676,280.336z M128.004,136.008
				c0-66.168,53.832-120,120-120s120,53.832,120,120s-53.832,120-120,120S128.004,202.176,128.004,136.008z M256.004,271.6v104.696
				c-2.664-0.112-5.32-0.288-8-0.288s-5.336,0.176-8,0.288V271.6c2.664,0.16,5.296,0.408,8,0.408
				C250.708,272.008,253.34,271.76,256.004,271.6z M128.332,280.336c50.72,4.04,91.304,44.624,95.344,95.344
				C172.956,371.64,132.372,331.056,128.332,280.336z M95.564,480.008c31.224-53.848,89.704-88,152.44-88s121.216,34.152,152.44,88
				H95.564z"/>
			<rect x="344.004" y="448.008" width="16" height="16"/>
			<rect x="144.004" y="432.008" width="16" height="16"/>
			<rect x="440.004" y="0.008" width="16" height="24"/>
			<rect x="410.525" y="14.534" transform="matrix(0.7071 0.7071 -0.7071 0.7071 139.6884 -292.1703)" width="24" height="16"/>
			<rect x="400.004" y="40.008" width="24" height="16"/>
			<rect x="414.555" y="61.477" transform="matrix(-0.7071 -0.7071 0.7071 -0.7071 669.3898 424.2235)" width="16" height="24"/>
			<rect x="440.004" y="72.008" width="16" height="24"/>
			<rect x="461.444" y="65.475" transform="matrix(-0.7071 -0.7071 0.7071 -0.7071 756.2641 460.2054)" width="24" height="16"/>
			<rect x="472.004" y="40.008" width="24" height="16"/>
			<rect x="465.455" y="10.552" transform="matrix(0.7071 0.7071 -0.7071 0.7071 154.6186 -328.178)" width="16" height="24"/>
			<rect x="40.004" y="160.008" width="16" height="24"/>
			<rect x="10.549" y="174.558" transform="matrix(-0.7071 -0.7071 0.7071 -0.7071 -90.5943 327.5899)" width="24" height="16"/>
			<rect x="0.004" y="200.008" width="24" height="16"/>
			<rect x="14.546" y="221.447" transform="matrix(-0.7071 -0.7071 0.7071 -0.7071 -126.5842 414.4608)" width="16" height="24"/>
			<rect x="40.004" y="232.008" width="16" height="24"/>
			<rect x="61.455" y="225.464" transform="matrix(0.7071 0.7071 -0.7071 0.7071 186.5985 16.4394)" width="24" height="16"/>
			<rect x="72.004" y="200.008" width="24" height="16"/>
			<rect x="65.455" y="170.552" transform="matrix(0.7071 0.7071 -0.7071 0.7071 150.5983 1.5276)" width="16" height="24"/>
			<rect x="424.004" y="192.008" width="16" height="16"/>
			<rect x="424.004" y="224.008" width="16" height="16"/>
			<rect x="440.004" y="208.008" width="16" height="16"/>
			<rect x="408.004" y="208.008" width="16" height="16"/>
			<rect x="88.004" y="0.008" width="16" height="16"/>
			<rect x="88.004" y="32.008" width="16" height="16"/>
			<rect x="104.004" y="16.008" width="16" height="16"/>
			<rect x="72.004" y="16.008" width="16" height="16"/>
		</g>
	</g>
</g>
<g>
</g>
<g>
</g>
<g>
</g>
<g>
</g>
<g>
</g>
<g>
</g>
<g>
</g>
<g>
</g>
<g>
</g>
<g>
</g>
<g>
</g>
<g>
</g>
<g>
</g>
<g>
</g>
<g>
</g>
</svg>
