<?xml version="1.0" encoding="iso-8859-1"?>
<!-- Generator: Adobe Illustrator 19.0.0, SVG Export Plug-In . SVG Version: 6.00 Build 0)  -->
<svg version="1.1" id="Layer_1" xmlns="http://www.w3.org/2000/svg" xmlns:xlink="http://www.w3.org/1999/xlink" x="0px" y="0px"
	 viewBox="0 0 512.001 512.001" style="enable-background:new 0 0 512.001 512.001;" xml:space="preserve">
<rect x="1.4" y="147.248" transform="matrix(-0.7071 0.7071 -0.7071 -0.7071 281.6385 226.5249)" style="fill:#127481;" width="185.008" height="48.687"/>
<path style="fill:#FFC798;" d="M187.938,159.589l-23.799-23.799L57.417,242.513l24.548,24.548
	c6.518,6.518,11.644,14.291,15.067,22.849l0.64,1.599c3.423,8.558,8.549,16.332,15.067,22.849l126.854,126.854
	c8.524,8.524,22.345,8.524,30.869,0l0,0c8.556-8.556,8.613-22.485,0.058-31.042l13.139,13.139c8.524,8.524,22.345,8.524,30.869,0
	l0,0c8.556-8.556,8.613-22.485,0.058-31.042l15.206,15.206c8.524,8.524,22.345,8.524,30.869,0l0,0
	c8.552-8.552,8.552-22.547,0-31.098l-15.09-15.09c8.556,8.556,22.313,8.671,30.869,0.115l0.058-0.058
	c8.552-8.552,8.552-22.547,0-31.098L237.424,191.173c-7.001-7.001-15.445-12.39-24.743-15.791l0,0
	C203.383,171.979,194.94,166.59,187.938,159.589z"/>
<rect x="325.585" y="122.691" transform="matrix(0.7071 0.7071 -0.7071 0.7071 226.4243 -252.5681)" style="fill:#127481;" width="185.008" height="48.687"/>
<path style="fill:#FFC798;" d="M243.804,197.463l-25.912,0.113c-17.305,0-31.092-14.305-31.482-31.219l0.001,0.001
	c0.027-9.612,7.904-17.483,17.489-17.483l90.764-0.126c13.228-1.831,22.435-6.678,29.437-13.679l23.799-23.799l106.723,106.723
	l-24.548,24.548c-6.518,6.518-11.654,14.282-15.077,22.84l-0.649,1.589c-3.423,8.558-10.814,18.635-17.333,25.154l-28.482,28.482
	L243.804,197.463z"/>
<path style="fill:#231F20;" d="M508.695,187.252L377.873,56.431c-4.407-4.407-11.553-4.406-15.961,0l-34.427,34.427
	c-2.116,2.116-3.306,4.987-3.306,7.98s1.19,5.864,3.306,7.98l4.452,4.452l-15.821,15.821c-5.634,5.634-12.725,8.942-22.272,10.375
	l-89.949,0.129c-6.197,0-11.943,1.986-16.648,5.346l-7.15-7.15l4.414-4.414c2.116-2.116,3.306-4.987,3.306-7.98
	c0-2.993-1.19-5.864-3.306-7.98L150.088,80.99c-4.407-4.407-11.553-4.406-15.961,0L3.305,211.811
	c-4.407,4.407-4.407,11.553,0,15.961l34.427,34.427c2.116,2.116,4.987,3.306,7.98,3.306c2.993,0,5.864-1.19,7.98-3.306l3.724-3.724
	l16.568,16.568c5.468,5.467,9.697,11.881,12.569,19.06l0.64,1.599c4.013,10.035,9.924,18.998,17.565,26.639l126.853,126.853
	c6.456,6.456,14.935,9.683,23.415,9.683s16.959-3.228,23.415-9.683c3.246-3.247,5.682-7.002,7.308-11.009
	c12.135,5.326,26.838,3.03,36.759-6.892c2.966-2.967,5.304-6.397,6.948-10.13c12.549,6.787,28.592,4.886,39.185-5.707
	c10.604-10.604,12.54-26.645,5.81-39.234c3.609-1.589,6.984-3.856,9.929-6.801c0.012-0.012,0.084-0.084,0.096-0.096
	c12.974-12.974,12.974-34.086,0-47.06l-0.82-0.82l21.339-21.339c6.346-6.347,15.348-17.735,19.799-28.866l0.681-1.666
	c2.863-7.159,7.095-13.568,12.579-19.052l16.568-16.568l3.687,3.687c2.116,2.116,4.987,3.306,7.98,3.306
	c2.993,0,5.864-1.19,7.98-3.306l34.427-34.427C513.102,198.806,513.102,191.66,508.695,187.252z M45.712,238.258l-18.466-18.466
	l114.86-114.861l18.466,18.466L45.712,238.258z M368.554,353.325c-0.012,0.012-0.084,0.082-0.096,0.096
	c-4.148,4.148-10.697,4.097-14.908-0.116c-0.644-0.644-65.984-65.526-65.984-65.526c-4.408-4.407-11.553-4.406-15.962,0
	c-4.407,4.407-4.407,11.553,0,15.961c0,0,81.79,81.704,82.264,82.05c2.925,4.174,2.536,9.98-1.191,13.704
	c-4.11,4.111-10.798,4.111-14.908,0l-87.387-86.927c-4.406-4.407-11.553-4.407-15.961,0c-4.407,4.407-4.407,11.553,0,15.962
	l73.752,73.752c2.457,4.09,1.917,9.503-1.629,13.05c-1.992,1.992-4.638,3.088-7.454,3.088c-2.816,0-5.462-1.097-7.453-3.088
	l-81.19-80.73c-4.407-4.407-11.553-4.406-15.961,0c-4.407,4.407-4.407,11.553,0,15.962l69.623,69.623
	c2.457,4.09,1.916,9.503-1.63,13.05c-4.11,4.11-10.798,4.11-14.908,0L120.722,306.38c-5.468-5.468-9.697-11.881-12.568-19.06
	l-0.64-1.6c-4.014-10.034-9.924-18.996-17.565-26.638l-16.568-16.568l90.761-90.761l11.2,11.199
	c-0.134,1.112-0.212,2.239-0.216,3.385c0,0.097,0,0.21,0.002,0.308c0.537,23.294,19.721,42.274,42.814,42.274l21.22-0.047
	l129.355,129.355C372.689,342.398,372.689,349.189,368.554,353.325z M422.093,234.561c-7.658,7.658-13.57,16.616-17.544,26.553
	l-0.681,1.666c-2.563,6.408-8.663,15.193-14.834,21.364l-21.339,21.338l-59.925-59.925c11.52-0.265,20.306-2.187,25.981-3.915
	c4.036-1.229,5.977-5.8,4.076-9.566l-4.107-8.137c-1.457-2.887-4.74-4.356-7.856-3.495c-7.296,2.018-22.074,4.499-42.995,0.213
	l-30.961-30.961l-0.124,0.118c-2.043-1.989-4.865-3.198-7.981-3.198c-0.017,0-0.034,0-0.05,0l-25.864-0.108
	c-10.827,0-19.85-9.188-20.193-20.244c0.077-3.324,2.889-6.108,6.216-6.108l90.764-0.126c0.512,0,1.025-0.036,1.531-0.106
	c14.834-2.053,26.567-7.574,35.87-16.878l15.818-15.818l90.761,90.761L422.093,234.561z M466.288,213.7L351.427,98.839
	l18.466-18.466l114.86,114.86L466.288,213.7z"/>
<g>
</g>
<g>
</g>
<g>
</g>
<g>
</g>
<g>
</g>
<g>
</g>
<g>
</g>
<g>
</g>
<g>
</g>
<g>
</g>
<g>
</g>
<g>
</g>
<g>
</g>
<g>
</g>
<g>
</g>
</svg>
