<?xml version="1.0" encoding="iso-8859-1"?>
<!-- Generator: Adobe Illustrator 19.0.0, SVG Export Plug-In . SVG Version: 6.00 Build 0)  -->
<svg version="1.1" id="Capa_1" xmlns="http://www.w3.org/2000/svg" xmlns:xlink="http://www.w3.org/1999/xlink" x="0px" y="0px"
	 viewBox="0 0 496 496" style="enable-background:new 0 0 496 496;" xml:space="preserve">
<g>
	<circle style="fill:#FFA64D;" cx="376" cy="376" r="88"/>
	<rect x="56" y="240" style="fill:#FFA64D;" width="112" height="64"/>
	<polygon style="fill:#FFA64D;" points="432,72 432,0 320,0 320,72 280,72 376,144 472,72 	"/>
</g>
<g>
	<path style="fill:#333333;" d="M360,328h32c8.824,0,16,7.176,16,16h16c0-17.648-14.352-32-32-32h-8v-16h-16v16h-8
		c-17.648,0-32,14.352-32,32v8c0,17.648,14.352,32,32,32h32c8.824,0,16,7.176,16,16v8c0,8.824-7.176,16-16,16h-32
		c-8.824,0-16-7.176-16-16h-16c0,17.648,14.352,32,32,32h8v16h16v-16h8c17.648,0,32-14.352,32-32v-8c0-17.648-14.352-32-32-32h-32
		c-8.824,0-16-7.176-16-16v-8C344,335.176,351.176,328,360,328z"/>
	<path style="fill:#333333;" d="M440,274.664v-7.344c0-8.64-3.208-16.72-8.848-23.16l23.424-23.424l12.704-25.416l-51.576-17.192
		l0.048-0.2L416,160h-80v16l0.512,2.064l-51.792,17.264l12.704,25.416l23.424,23.424C315.208,250.6,312,258.68,312,267.32v7.344
		c-33.592,21.288-56,58.704-56,101.336c0,66.168,53.832,120,120,120s120-53.832,120-120C496,333.368,473.592,295.96,440,274.664z
		 M444.72,204.672l-3.296,6.584l-23.36,23.368c-4.192-1.712-8.72-2.624-13.384-2.624h-2.432l9.568-38.296L444.72,204.672z
		 M399.752,176l-14,56h-19.504l-14-56H399.752z M307.28,204.672l33.072-11.024L349.808,232h-2.488
		c-4.664,0-9.192,0.912-13.376,2.624l-23.36-23.368L307.28,204.672z M333.656,253.656c3.648-3.648,8.504-5.656,13.664-5.656h6.432
		h44.496h6.432c5.168,0,10.016,2.008,13.664,5.656c3.336,3.336,5.224,7.704,5.528,12.368C409.192,259.608,393.016,256,376,256
		s-33.192,3.608-47.872,10.024C328.44,261.36,330.32,256.992,333.656,253.656z M376,480c-57.344,0-104-46.656-104-104
		s46.656-104,104-104s104,46.656,104,104S433.344,480,376,480z"/>
	<path style="fill:#333333;" d="M178.984,152.44l-34.984-7v-9.04c23.664-11.808,40-36.208,40-64.4c0-39.704-32.296-72-72-72
		S40,32.296,40,72c0,28.2,16.336,52.592,40,64.4v9.032l-34.984,7C18.928,157.656,0,180.76,0,207.352V296c0,17.648,14.352,32,32,32
		c5.856,0,11.272-1.696,16-4.448V496h128V323.552c4.728,2.752,10.144,4.448,16,4.448c17.648,0,32-14.352,32-32v-88.648
		C224,180.76,205.072,157.656,178.984,152.44z M56,72c0-30.872,25.128-56,56-56s56,25.128,56,56s-25.128,56-56,56S56,102.872,56,72z
		 M112,144c5.504,0,10.848-0.68,16-1.856v5.832c-2.816,1.704-8.096,4.024-16,4.024c-7.904,0-13.184-2.32-16-4.016v-5.832
		C101.152,143.32,106.496,144,112,144z M32,312c-8.824,0-16-7.176-16-16v-32h32v32C48,304.824,40.824,312,32,312z M160,264h-16v16
		h16v16H64v-16h64v-16H64v-16h96V264z M120,480V328h-16v152H64V312h96v168H120z M192,312c-8.824,0-16-7.176-16-16v-32h32v32
		C208,304.824,200.824,312,192,312z M208,248h-32v-32h-16v16H64v-16H48v32H16v-40.648c0-19,13.52-35.496,32.16-39.224l37.856-7.568
		C90.52,163.648,99.096,168,112,168s21.48-4.352,25.984-7.44l37.856,7.568c18.64,3.728,32.16,20.224,32.16,39.224V248z"/>
	<rect x="368" y="48" style="fill:#333333;" width="16" height="32"/>
	<rect x="368" y="0" style="fill:#333333;" width="16" height="32"/>
</g>
<g>
</g>
<g>
</g>
<g>
</g>
<g>
</g>
<g>
</g>
<g>
</g>
<g>
</g>
<g>
</g>
<g>
</g>
<g>
</g>
<g>
</g>
<g>
</g>
<g>
</g>
<g>
</g>
<g>
</g>
</svg>
